<svg xmlns="http://www.w3.org/2000/svg" viewBox="0 0 1000 1008.31"><defs><style>.cls-1{isolation:isolate;}.cls-2{fill:none;}.cls-3{fill:#38bcdb;}.cls-3,.cls-4,.cls-5{mix-blend-mode:overlay;}.cls-4{fill:#2e91a3;}.cls-5{fill:#6ccce6;}.cls-6{fill:#fff;}</style></defs><title>tes_logo_vt_bgdark</title><g class="cls-1"><g id="Layer_2" data-name="Layer 2"><g id="Layer_1-2" data-name="Layer 1"><path class="cls-2" d="M440.06,952.26c-11.83,0-21.29,9.46-21.29,22.2,0,13.28,9.46,23.11,21.29,23.11s21.29-9.83,21.29-23.11C461.36,961.72,451.89,952.26,440.06,952.26Z"/><path class="cls-2" d="M294.82,953.81h-.18s-1.46,6.37-2.73,10l-5.73,17.29H303.1l-5.73-17.29C296.18,960.18,294.82,953.81,294.82,953.81Z"/><path class="cls-2" d="M585.85,766.34C555.4,766.34,531,790.7,531,823.5c0,34.2,24.36,59.5,54.81,59.5s54.82-25.3,54.82-59.5C640.67,790.7,616.3,766.34,585.85,766.34Z"/><path class="cls-2" d="M96.16,952.72H86.51v44.41h9.65c13.1,0,21.47-7.73,21.47-22.29C117.63,960.45,109.08,952.72,96.16,952.72Z"/><path class="cls-2" d="M214.57,767.51h-23v52h27.17c16.16,0,26.24-9.61,26.24-26.24C245,777.35,238.23,767.51,214.57,767.51Z"/><path class="cls-2" d="M700.06,952.72h-8.92v20.2H701.7c6.28,0,10.19-3.73,10.19-10.19C711.89,956.54,709.25,952.72,700.06,952.72Z"/><polygon class="cls-3" points="498.82 0 499.29 0.28 499.76 0 100.54 0 202.82 177.16 498.82 0.56 498.82 0"/><polygon class="cls-3" points="794.49 177.71 897.09 0 499.76 0 499.76 0.57 794.49 177.71"/><polygon class="cls-3" points="497.78 688.05 498.82 689.84 498.82 688.98 497.78 688.05"/><polygon class="cls-4" points="499.76 688.98 954.98 274.17 794.49 177.71 499.76 688.2 499.76 688.98"/><polygon class="cls-4" points="498.82 689.84 499.29 689.41 499.14 689.28 498.82 689.84"/><polygon class="cls-3" points="498.82 688.98 498.82 689.84 499.14 689.28 498.82 688.98"/><polygon class="cls-4" points="498.82 688.98 498.82 689.84 499.14 689.28 498.82 688.98"/><polygon class="cls-3" points="499.76 168.52 668.07 168.52 668.07 247.69 548.72 247.69 548.72 494.13 499.76 494.13 499.76 688.2 794.49 177.71 499.76 0.57 499.76 168.52"/><polygon class="cls-4" points="499.76 168.52 668.07 168.52 668.07 247.69 548.72 247.69 548.72 494.13 499.76 494.13 499.76 688.2 794.49 177.71 499.76 0.57 499.76 168.52"/><polygon class="cls-3" points="498.82 0 498.82 0.56 499.29 0.28 498.82 0"/><polygon class="cls-4" points="498.82 0 498.82 0.56 499.29 0.28 498.82 0"/><polygon class="cls-5" points="499.76 689.84 499.76 688.98 499.29 689.41 499.76 689.84"/><polygon class="cls-5" points="497.78 688.05 202.82 177.16 40.21 274.17 497.78 688.05"/><polygon class="cls-3" points="499.76 0.57 499.76 0 499.29 0.28 499.76 0.57"/><polygon class="cls-5" points="499.76 0.57 499.76 0 499.29 0.28 499.76 0.57"/><polygon class="cls-3" points="498.82 688.98 498.82 494.13 450.76 494.13 450.76 247.69 331.41 247.69 331.41 168.52 498.82 168.52 498.82 0.56 202.82 177.16 497.78 688.05 498.82 688.98"/><polygon class="cls-5" points="498.82 688.98 498.82 494.13 450.76 494.13 450.76 247.69 331.41 247.69 331.41 168.52 498.82 168.52 498.82 0.56 202.82 177.16 497.78 688.05 498.82 688.98"/><polygon class="cls-4" points="499.14 689.28 499.29 689.41 499.76 688.98 499.76 688.2 499.14 689.28"/><polygon class="cls-5" points="499.14 689.28 499.29 689.41 499.76 688.98 499.76 688.2 499.14 689.28"/><polygon class="cls-3" points="499.76 688.2 499.76 494.13 498.82 494.13 498.82 688.98 499.14 689.28 499.76 688.2"/><polygon class="cls-4" points="499.76 688.2 499.76 494.13 498.82 494.13 498.82 688.98 499.14 689.28 499.76 688.2"/><polygon class="cls-5" points="499.76 688.2 499.76 494.13 498.82 494.13 498.82 688.98 499.14 689.28 499.76 688.2"/><polygon class="cls-3" points="499.76 0.57 499.29 0.28 498.82 0.56 498.82 168.52 499.76 168.52 499.76 0.57"/><polygon class="cls-4" points="499.76 0.57 499.29 0.28 498.82 0.56 498.82 168.52 499.76 168.52 499.76 0.57"/><polygon class="cls-5" points="499.76 0.57 499.29 0.28 498.82 0.56 498.82 168.52 499.76 168.52 499.76 0.57"/><polygon class="cls-6" points="548.72 494.13 548.72 247.69 668.07 247.69 668.07 168.52 499.76 168.52 498.82 168.52 331.41 168.52 331.41 247.69 450.76 247.69 450.76 494.13 498.82 494.13 499.76 494.13 548.72 494.13"/><polygon class="cls-6" points="0 767.51 54.58 767.51 54.58 907.83 84.8 907.83 84.8 767.51 139.38 767.51 139.38 741.5 0 741.5 0 767.51"/><path class="cls-6" d="M275.71,791.64c0-22-10.54-37.95-27.17-45.45-7.26-3.28-15.46-4.69-33.5-4.69H161.4V907.83h30.22V845.75h29l33,62.08h33.73l-34.2-62.08a40.63,40.63,0,0,0-5.62-8.2v-.47C265.17,830.06,275.71,811.55,275.71,791.64Zm-56.92,27.88H191.61v-52h23c23.66,0,30.45,9.84,30.45,25.77C245,809.91,235,819.52,218.79,819.52Z"/><rect class="cls-6" x="315.53" y="741.51" width="30.22" height="166.32"/><polygon class="cls-6" points="387.91 741.5 387.91 907.83 490.05 907.83 490.05 881.83 418.13 881.83 418.13 741.5 387.91 741.5"/><path class="cls-6" d="M585.85,738.7c-49,0-86,37.25-86,84.8,0,49,37,87.15,86,87.15s86-38.18,86-87.15C671.82,775.94,634.81,738.7,585.85,738.7Zm0,144.3C555.4,883,531,857.7,531,823.5c0-32.79,24.36-57.16,54.81-57.16s54.82,24.36,54.82,57.16C640.67,857.7,616.3,883,585.85,883Z"/><path class="cls-6" d="M821.27,899.86v8H847V820.22H794.33v26h25.53v19.44S803.23,883,778.17,883c-31.16,0-55.75-23.43-55.75-59.5,0-31.39,19.91-57.16,57.16-57.16a71.66,71.66,0,0,1,44.27,15.93l15-22.49S817.75,738.7,777,738.7c-49.43,0-85.74,37.48-85.74,85.74,0,52.24,37.71,86.2,81.52,86.2,30.92,0,48.26-17.81,48.26-17.81h.47S821.27,896.35,821.27,899.86Z"/><path class="cls-6" d="M930,812.72h-.47c-.24.24-4.69-11.95-10.07-22.26l-26-49h-34.2l55.28,96.75v69.57h30.22V838.26L1000,741.51H965.8l-25.77,49C934.64,800.77,930,812.72,930,812.72Z"/><polygon class="cls-6" points="34.18 979.74 55.93 979.74 55.93 969.64 34.18 969.64 34.18 952.72 61.12 952.72 61.12 942.62 22.45 942.62 22.45 1007.22 62.57 1007.22 62.57 997.12 34.18 997.12 34.18 979.74"/><path class="cls-6" d="M96.79,942.62h-22v64.61h22c19.93,0,32.94-12,32.94-32.39S116.72,942.62,96.79,942.62Zm-.64,54.51H86.51V952.72h9.65c12.92,0,21.47,7.74,21.47,22.11C117.63,989.39,109.26,997.12,96.16,997.12Z"/><path class="cls-6" d="M181.52,983.93c0,8.74-5.73,13.65-14.38,13.65s-14.29-4.92-14.29-13.56V942.62H141.11V984c0,14.47,10.46,24.29,26.12,24.29s26-9.83,26-24.29V942.62H181.52Z"/><path class="cls-6" d="M238.12,997.58c-13.47,0-21.75-10.83-21.75-23.11,0-12,8-22.2,21.66-22.2,10.28,0,17.65,6.82,17.65,6.82l5.64-8.74s-8.1-8.83-23.84-8.83c-19,0-33.21,14.38-33.21,33.12,0,19,13.65,33.67,33.4,33.67a34.77,34.77,0,0,0,25.39-10.46l-6.19-8.46S249.32,997.58,238.12,997.58Z"/><path class="cls-6" d="M288.54,942.62l-22.75,64.61h12.1l5.46-16.56H306l5.46,16.56h12.1l-22.75-64.61Zm-2.37,38.49,5.73-17.29c1.27-3.64,2.73-10,2.73-10h.18s1.37,6.37,2.55,10l5.73,17.29Z"/><polygon class="cls-6" points="320.31 952.72 341.51 952.72 341.51 1007.22 353.25 1007.22 353.25 952.72 374.45 952.72 374.45 942.62 320.31 942.62 320.31 952.72"/><rect class="cls-6" x="383.01" y="942.62" width="11.74" height="64.61"/><path class="cls-6" d="M440.06,941.52c-19,0-33.4,14.47-33.4,32.94,0,19,14.38,33.85,33.4,33.85s33.4-14.83,33.4-33.85C473.46,956,459.08,941.52,440.06,941.52Zm0,56.06c-11.83,0-21.29-9.83-21.29-23.11,0-12.74,9.46-22.2,21.29-22.2s21.29,9.46,21.29,22.2C461.36,987.75,451.89,997.58,440.06,997.58Z"/><path class="cls-6" d="M526.52,979.92c0,3.82.64,10,.64,10H527a97.91,97.91,0,0,0-5.37-10l-24.48-37.31H485.39v64.61h11.74V970c0-3.82-.64-10-.64-10h.18A97.85,97.85,0,0,0,502,970l24.48,37.22h11.65V942.62H526.52Z"/><path class="cls-6" d="M584.94,960.09c0-4.55,4.28-7.73,9.74-7.73,8.1,0,14.29,5.64,14.29,5.64l5.1-9.55s-6.55-6.92-19.29-6.92c-12.38,0-21.66,8-21.66,18.75,0,19.84,30.49,17.83,30.49,29.39,0,5.28-4.46,7.82-9.37,7.82-9.1,0-16.11-6.82-16.11-6.82l-6.37,8.83s7.92,8.83,22.29,8.83c13.47,0,21.29-8.64,21.29-18.93C615.34,968.73,584.94,971.56,584.94,960.09Z"/><polygon class="cls-6" points="638.82 979.74 660.56 979.74 660.56 969.64 638.82 969.64 638.82 952.72 665.75 952.72 665.75 942.62 627.08 942.62 627.08 1007.22 667.21 1007.22 667.21 997.12 638.82 997.12 638.82 979.74"/><path class="cls-6" d="M712.89,979.92v-.18c6.83-2.73,10.92-9.92,10.92-17.65,0-8.56-4.1-14.74-10.56-17.66-2.82-1.27-6-1.82-13-1.82H679.4v64.61h11.74V983.11h11.28l12.83,24.11h13.1l-13.28-24.11A15.91,15.91,0,0,0,712.89,979.92Zm-11.19-7H691.14v-20.2h8.92c9.19,0,11.83,3.82,11.83,10C711.89,969.19,708,972.92,701.7,972.92Z"/><path class="cls-6" d="M762.49,984.75c-1.27,3.73-2.36,9.46-2.46,9.46h-.18c-.09,0-1.18-5.73-2.46-9.46l-14.2-42.13H730.55l23.57,64.61h11.65l23.57-64.61H776.77Z"/><rect class="cls-6" x="797.44" y="942.62" width="11.74" height="64.61"/><path class="cls-6" d="M854.95,997.58c-13.47,0-21.75-10.83-21.75-23.11,0-12,8-22.2,21.66-22.2,10.28,0,17.65,6.82,17.65,6.82l5.64-8.74s-8.1-8.83-23.84-8.83c-19,0-33.21,14.38-33.21,33.12,0,19,13.65,33.67,33.4,33.67,16.47,0,25.39-10.46,25.39-10.46l-6.19-8.46S866.14,997.58,854.95,997.58Z"/><polygon class="cls-6" points="902.45 979.74 924.2 979.74 924.2 969.64 902.45 969.64 902.45 952.72 929.39 952.72 929.39 942.62 890.72 942.62 890.72 1007.22 930.85 1007.22 930.85 997.12 902.45 997.12 902.45 979.74"/><path class="cls-6" d="M951.32,960.09c0-4.55,4.28-7.73,9.74-7.73,8.1,0,14.29,5.64,14.29,5.64l5.09-9.55s-6.55-6.92-19.29-6.92c-12.37,0-21.66,8-21.66,18.75,0,19.84,30.48,17.83,30.48,29.39,0,5.28-4.46,7.82-9.37,7.82-9.1,0-16.1-6.82-16.1-6.82l-6.37,8.83s7.92,8.83,22.29,8.83c13.47,0,21.29-8.64,21.29-18.93C981.72,968.73,951.32,971.56,951.32,960.09Z"/></g></g></g></svg>